<?xml version="1.0" encoding="utf-8"?><!-- Uploaded to: SVG Repo, www.svgrepo.com, Generator: SVG Repo Mixer Tools -->
<svg version="1.1" id="designs" xmlns="http://www.w3.org/2000/svg" xmlns:xlink="http://www.w3.org/1999/xlink" 
	 width="800px" height="800px" viewBox="0 0 32 32" xml:space="preserve">
<style type="text/css">
	.sketchy_een{fill:#111918;}
</style>
<path class="sketchy_een" d="M28.987,6.247c-0.027-0.292-0.113-0.521-0.233-0.785c-0.086-0.189-0.307-0.333-0.498-0.385
	c-0.068-0.019-0.138-0.027-0.209-0.028c0.059-0.116,0.101-0.24,0.101-0.368c0-0.22-0.089-0.433-0.245-0.589
	c-0.167-0.167-0.358-0.22-0.587-0.243c-0.344-0.035-0.691-0.045-1.037-0.045c-0.436,0-0.873,0.016-1.307,0.018
	c-0.828,0.004-1.656,0.025-2.483,0.058c-1.711,0.07-3.422,0.134-5.13,0.183c-1.701,0.049-3.404,0.076-5.105,0.099
	c-1.736,0.023-3.472-0.006-5.206,0.07C6.624,4.25,6.202,4.289,5.782,4.341c-0.342,0.045-0.677,0.091-1.005,0.2
	C4.555,4.614,4.337,4.711,4.131,4.816C3.799,4.983,3.556,5.241,3.348,5.543c-0.216,0.311-0.311,0.688-0.344,1.06
	c-0.027,0.307,0.105,0.61,0.227,0.883C3.284,7.6,3.365,7.708,3.435,7.815c0.117,0.181,0.229,0.364,0.34,0.548
	c0.181,0.303,0.527,0.459,0.861,0.413c0.002,0,0.005,0.001,0.007,0.001c0.212-0.001,0.423-0.006,0.635-0.007
	c0.023,0.557,0.065,1.114,0.133,1.67c0.101,0.809,0.179,1.617,0.268,2.426c0.177,1.633,0.465,3.25,0.743,4.868
	c0.272,1.571,0.562,3.14,0.838,4.709c0.14,0.797,0.264,1.594,0.416,2.387c0.138,0.739,0.309,1.47,0.453,2.207
	c0.029,0.15,0.056,0.301,0.084,0.453c0.078,0.418,0.579,0.651,0.962,0.546c0.041-0.011,0.071-0.038,0.108-0.055
	c0.126,0.075,0.264,0.13,0.419,0.135c1.814,0.058,3.624,0.066,5.438,0.054c0.737-0.004,1.476,0.004,2.212,0.012
	c0.945,0.01,1.89,0.02,2.835,0.004c0.636-0.012,1.273,0.006,1.907-0.039c0.157-0.01,0.293-0.061,0.42-0.139
	c0.014,0.005,0.023,0.015,0.037,0.019c0.408,0.113,0.935-0.134,1.019-0.579c0.157-0.828,0.358-1.647,0.533-2.471
	c0.179-0.84,0.344-1.684,0.494-2.527c0.317-1.787,0.548-3.587,0.844-5.375c0.262-1.579,0.484-3.163,0.694-4.75
	c-0.01,0.074-0.019,0.148-0.029,0.222c0.112-0.821,0.225-1.64,0.331-2.462c0.081-0.588,0.18-1.173,0.279-1.759
	c0.249-0.021,0.499-0.036,0.747-0.07c0.218-0.031,0.412-0.12,0.612-0.206c0.297-0.128,0.554-0.377,0.71-0.657
	c0.14-0.253,0.187-0.537,0.212-0.82C29.005,6.465,28.999,6.356,28.987,6.247z M19.352,19.073c-0.123-0.123-0.246-0.246-0.369-0.369
	c-0.533-0.531-1.06-1.065-1.577-1.61c-0.168-0.177-0.345-0.344-0.519-0.514c0.672-0.71,1.341-1.421,2.016-2.127
	c0.228-0.239,0.468-0.466,0.699-0.702c0.041,0.039,0.08,0.079,0.121,0.118c0.56,0.533,1.118,1.063,1.654,1.62
	c0.234,0.243,0.476,0.475,0.714,0.713c-0.067,0.067-0.134,0.135-0.2,0.202c-0.54,0.546-1.06,1.114-1.59,1.668
	C19.983,18.404,19.669,18.74,19.352,19.073z M9.371,11.674c0.577,0.525,1.151,1.05,1.722,1.581c0.062,0.058,0.127,0.114,0.189,0.172
	c-0.391,0.419-0.778,0.841-1.195,1.233C9.666,15.056,9.23,15.435,8.8,15.822c-0.298-0.315-0.593-0.632-0.895-0.943
	c-0.125-0.129-0.291-0.191-0.46-0.21c-0.054-0.346-0.118-0.69-0.169-1.036c-0.031-0.248-0.055-0.498-0.082-0.747
	c0.552-0.569,1.132-1.11,1.724-1.637C9.071,11.389,9.218,11.534,9.371,11.674z M16.286,10.475c0.569,0.595,1.15,1.171,1.745,1.738
	c0.188,0.18,0.372,0.363,0.557,0.546c-0.247,0.253-0.497,0.504-0.741,0.761c-0.662,0.698-1.322,1.398-1.983,2.097
	c-0.059-0.054-0.117-0.108-0.176-0.161c-0.762-0.69-1.515-1.39-2.27-2.086c0.35-0.342,0.7-0.682,1.046-1.028
	c0.574-0.572,1.153-1.139,1.722-1.717C16.232,10.581,16.255,10.526,16.286,10.475z M12.849,14.851
	c0.583,0.531,1.165,1.065,1.744,1.6c0.086,0.08,0.167,0.164,0.254,0.243c-0.122,0.13-0.246,0.259-0.368,0.389
	c-0.525,0.56-1.06,1.11-1.59,1.664c-0.182,0.191-0.361,0.384-0.541,0.576c-0.026-0.024-0.052-0.048-0.078-0.072
	c-0.288-0.264-0.566-0.542-0.85-0.811c-0.286-0.272-0.579-0.533-0.867-0.801c-0.257-0.24-0.499-0.497-0.741-0.752
	c0.468-0.426,0.95-0.837,1.413-1.267c0.406-0.378,0.782-0.786,1.159-1.193C12.54,14.568,12.694,14.71,12.849,14.851z M6.99,10.884
	c-0.049-0.459-0.103-0.916-0.128-1.376c-0.005-0.088,0-0.176-0.004-0.264c0.248,0.278,0.518,0.539,0.78,0.801
	c0.082,0.081,0.17,0.156,0.252,0.237c-0.292,0.27-0.587,0.537-0.879,0.808C7.003,11.021,6.997,10.953,6.99,10.884z M8.721,17.929
	c0.523,0.522,1.075,1.012,1.613,1.518c0.336,0.315,0.673,0.63,1.01,0.945c-0.027,0.029-0.055,0.058-0.082,0.087
	c-0.263,0.278-0.527,0.554-0.797,0.824c-0.255,0.255-0.515,0.504-0.756,0.77c-0.281,0.307-0.551,0.623-0.82,0.939
	c-0.026-0.157-0.058-0.313-0.084-0.469c-0.227-1.333-0.476-2.663-0.716-3.995C8.301,18.343,8.511,18.137,8.721,17.929z
	 M10.758,22.989c0.26-0.288,0.544-0.556,0.818-0.83c0.257-0.253,0.505-0.515,0.75-0.778c0.01-0.01,0.02-0.021,0.03-0.031
	c0.465,0.45,0.921,0.908,1.391,1.354c0.27,0.257,0.544,0.511,0.826,0.756c0.105,0.092,0.21,0.185,0.314,0.279
	c-0.072,0.076-0.146,0.151-0.218,0.227c-1.166,0.021-2.332,0.043-3.499,0.039c-0.411-0.001-0.821-0.026-1.231-0.041
	C10.211,23.637,10.472,23.303,10.758,22.989z M15.931,22.659c-0.889-0.753-1.717-1.573-2.557-2.379
	c0.751-0.787,1.504-1.572,2.248-2.365c0.078-0.084,0.158-0.166,0.237-0.25c0.16,0.157,0.329,0.303,0.484,0.465
	c0.658,0.681,1.333,1.342,2.008,2.005c-0.448,0.494-0.889,0.993-1.356,1.469C16.643,21.96,16.283,22.306,15.931,22.659z
	 M22.969,10.406c0.475,0.395,0.946,0.794,1.409,1.203c0.051,0.045,0.111,0.074,0.169,0.105c-0.036,0.279-0.067,0.558-0.104,0.837
	c-0.076,0.565-0.165,1.128-0.251,1.692c-0.128,0.035-0.251,0.09-0.348,0.19c-0.246,0.252-0.496,0.502-0.745,0.752
	c-0.514-0.517-1.005-1.058-1.529-1.565c-0.313-0.302-0.622-0.606-0.934-0.907c0.569-0.569,1.13-1.146,1.703-1.71
	C22.545,10.801,22.759,10.605,22.969,10.406z M24.03,9.4c0.306-0.287,0.606-0.58,0.909-0.871c-0.068,0.499-0.13,0.998-0.184,1.499
	C24.513,9.818,24.27,9.611,24.03,9.4z M21.384,9.109c0.141,0.114,0.28,0.229,0.42,0.343c-0.234,0.236-0.476,0.465-0.707,0.704
	c-0.498,0.516-0.989,1.039-1.488,1.552c-0.474-0.473-0.955-0.939-1.422-1.42c-0.522-0.535-1-1.11-1.472-1.688
	c1.213-0.041,2.426-0.094,3.64-0.121c0.277-0.006,0.555-0.013,0.832-0.019c-0.006,0.04-0.023,0.077-0.023,0.117
	C21.164,8.758,21.238,8.991,21.384,9.109z M14.756,8.654c0.186,0.242,0.372,0.484,0.565,0.721c-0.083,0.037-0.163,0.085-0.229,0.154
	c-0.57,0.591-1.126,1.196-1.697,1.785c-0.348,0.358-0.709,0.703-1.068,1.05c-0.05-0.047-0.102-0.093-0.152-0.14
	c-0.574-0.54-1.147-1.079-1.728-1.61c-0.128-0.117-0.249-0.243-0.376-0.361c0.229-0.19,0.456-0.383,0.686-0.572
	c0.376-0.311,0.73-0.645,1.085-0.979C12.123,8.7,12.404,8.7,12.686,8.695C13.375,8.682,14.065,8.666,14.756,8.654z M9.015,9.241
	c-0.082-0.082-0.17-0.157-0.25-0.24C8.679,8.913,8.593,8.824,8.507,8.736c0.355-0.005,0.71-0.007,1.065-0.012
	C9.386,8.896,9.203,9.071,9.015,9.241z M23.25,20.445c-0.134,0.883-0.292,1.761-0.455,2.64c-0.217,1.164-0.482,2.319-0.728,3.478
	c-1.628,0.088-3.262,0.075-4.89,0.052c-1.686-0.023-3.369-0.023-5.053-0.08c-0.809-0.027-1.616-0.06-2.422-0.091
	c-0.009,0-0.019,0-0.028,0c-0.032,0-0.06,0.016-0.092,0.021c-0.072-0.312-0.142-0.625-0.211-0.938
	c0.646,0.018,1.293,0.02,1.94,0.003c0.789-0.021,1.581-0.033,2.372-0.049c1.59-0.029,3.182-0.031,4.773-0.025
	c0.76,0.002,1.518,0.01,2.277,0.021c0.432,0.008,0.791-0.365,0.791-0.791c0-0.422-0.354-0.791-0.781-0.791c-0.003,0-0.007,0-0.01,0
	c-1.339,0.02-2.678,0.027-4.017,0.042c0.245-0.25,0.486-0.504,0.735-0.751c0.572-0.566,1.137-1.131,1.674-1.73
	c0.088-0.098,0.18-0.192,0.268-0.289c0.023,0.023,0.047,0.046,0.07,0.069c0.251,0.255,0.509,0.504,0.768,0.754
	c0.284,0.276,0.579,0.544,0.844,0.84c0.26,0.292,0.748,0.264,1.013,0c0.288-0.288,0.259-0.721,0-1.013
	c-0.251-0.282-0.529-0.537-0.797-0.801c-0.262-0.26-0.523-0.525-0.782-0.787c-0.042-0.043-0.085-0.085-0.128-0.128
	c0.661-0.701,1.329-1.394,2.01-2.075c0.266-0.266,0.544-0.521,0.82-0.779c0.149,0.132,0.3,0.261,0.454,0.389
	c-0.01,0.067-0.021,0.133-0.032,0.2C23.497,18.705,23.381,19.576,23.25,20.445z M27.329,6.54c-0.061,0.019-0.122,0.035-0.184,0.047
	c-0.331,0.03-0.665,0.047-0.998,0.061c-0.058-0.012-0.117-0.024-0.176-0.024c-0.083,0-0.166,0.014-0.246,0.038
	c-0.267,0.007-0.534,0.014-0.8,0.018c-0.797,0.012-1.592,0.043-2.387,0.08c-0.817,0.039-1.633,0.052-2.45,0.085
	c-0.846,0.033-1.689,0.091-2.535,0.14c-0.85,0.049-1.701,0.072-2.553,0.085c-0.888,0.012-1.779,0.043-2.669,0.054
	c-1.717,0.023-3.433,0.043-5.152,0.035C6.811,7.159,6.444,7.156,6.076,7.152c-0.011,0-0.02-0.006-0.031-0.006
	c-0.01,0-0.019,0.005-0.029,0.006c-0.33-0.003-0.66-0.006-0.991-0.008C4.91,6.972,4.796,6.8,4.7,6.619
	C4.698,6.613,4.697,6.607,4.695,6.601c0.009-0.035,0.02-0.07,0.031-0.105c0.028-0.053,0.058-0.104,0.09-0.154
	C4.84,6.317,4.865,6.294,4.89,6.271c0.114-0.073,0.233-0.135,0.355-0.192c0.293-0.102,0.592-0.152,0.897-0.199
	C7.8,5.695,9.467,5.696,11.134,5.681c0.867-0.008,1.736-0.035,2.603-0.051c0.892-0.017,1.785-0.019,2.675-0.031
	c1.693-0.019,3.387-0.084,5.078-0.126c1.647-0.041,3.293-0.023,4.94-0.01c0.293,0.004,0.582,0.029,0.873,0.048
	c-0.026,0.05-0.06,0.095-0.075,0.149c-0.06,0.219-0.018,0.404,0.064,0.599c0.014,0.042,0.027,0.084,0.037,0.126
	c0.002,0.051,0.002,0.101,0,0.152C27.329,6.538,27.329,6.539,27.329,6.54z"/>
</svg>